<svg width="106" height="108" viewBox="0 0 196 198" fill="none" xmlns="http://www.w3.org/2000/svg">
<path d="M130.562 133.571C109.009 155.985 76.7755 159.095 58.5406 141.561C57.9291 140.973 55.6611 138.755 53.4106 136.517C51.1034 134.222 48.9815 132.07 48.5361 131.52C44.198 126.158 41.4085 119.8 40.1512 112.947C39.6194 110.048 39.3618 107.059 39.3781 104.021C39.3949 100.891 39.7025 97.7083 40.3 94.5181C40.833 91.6721 41.5965 88.8207 42.5894 85.9954C43.5095 83.3776 44.6262 80.7826 45.9386 78.2357C47.184 75.8187 48.6054 73.4453 50.2018 71.1369C51.6531 69.038 53.2491 66.9929 54.9887 65.0178C55.6389 64.2796 56.3091 63.5511 56.9994 62.8333C58.1399 61.6472 59.3115 60.5146 60.5105 59.4359C62.5361 57.6132 64.6397 55.9443 66.8028 54.4309C68.98 52.9076 71.2175 51.5418 73.4966 50.3352C76.3532 48.8229 79.2748 47.561 82.2247 46.5523C85.0192 45.5968 87.8385 44.8689 90.6514 44.3708C95.1709 43.5705 99.6713 43.3639 104.026 43.758C111.819 44.4632 119.142 47.0911 125.302 51.6883C125.869 52.1117 128.103 54.1478 130.486 56.3635C132.81 58.5246 135.115 60.704 135.727 61.2921C153.962 78.8268 152.115 111.158 130.562 133.571Z" fill="#FDED5E" stroke="#BBA800" stroke-width="4"/>
<path d="M131.229 134.215C109.616 156.691 78.0483 160.322 60.6762 143.617C43.3042 126.912 45.6968 95.2265 67.3099 72.7503C88.923 50.2741 120.49 46.6431 137.862 63.3481C155.234 80.0531 152.842 111.738 131.229 134.215Z" fill="#FDED5E" stroke="#BBA800" stroke-width="4"/>
</svg>
