<svg width="1855" height="960" viewBox="0 0 1855 960" fill="none" xmlns="http://www.w3.org/2000/svg">
<rect width="1855" height="960" fill="
#98C1FF"/>
<path d="M198.876 546.921C239.311 520.487 242.133 486.343 225.285 472.575C246.469 386.664 161.468 393.509 129.524 407.67C95.6714 355.746 50.3775 386.035 31.9621 407.67C-49.849 382.18 -76.5708 440.319 -79.7053 472.575C-94.7511 520.723 -54.6292 542.201 -32.6875 546.921C-6.46642 607.335 70.0672 585.984 81.3509 569.714C136.515 611.486 180.852 581.144 198.876 546.921Z" fill="white"/>
<path d="M264.391 58.8917C278.505 49.621 279.49 37.6463 273.609 32.8178C281.003 2.68793 251.333 5.08839 240.183 10.0549C228.366 -8.15546 212.556 2.46723 206.128 10.0549C177.572 1.11524 168.244 21.5053 167.15 32.8178C161.898 49.7037 175.903 57.2362 183.562 58.8917C192.715 80.0795 219.429 72.5916 223.368 66.8855C242.623 81.5354 258.099 70.894 264.391 58.8917Z" fill="white"/>
<path d="M1821.94 523.3C1858.95 544.662 1861.53 572.255 1846.11 583.381C1865.5 652.806 1787.71 647.275 1758.48 635.831C1727.5 677.792 1686.05 653.315 1669.2 635.831C1594.34 656.43 1569.88 609.447 1567.01 583.381C1553.25 544.472 1589.96 527.115 1610.04 523.3C1641.02 456.926 1691.81 477.225 1714.4 504.881C1759.14 438.507 1805.45 495.645 1821.94 523.3Z" fill="white"/>
<path d="M1466.5 322.604C1479.22 314.174 1478.8 303.287 1473.5 298.897C1480.16 271.502 1446.88 273.684 1436.83 278.2C1426.19 261.642 1404.79 271.301 1399 278.2C1373.27 270.072 1372.02 288.611 1371.04 298.897C1366.31 314.25 1378.92 321.099 1385.82 322.604C1391.5 337.057 1415.74 333.517 1423.5 322.604C1436.83 341.558 1460.83 333.517 1466.5 322.604Z" fill="white"/>
<path d="M581.501 948.546C594.216 940.117 593.799 929.229 588.501 924.839C595.162 897.444 561.877 899.627 551.832 904.142C541.187 887.585 519.792 897.243 514.001 904.142C488.274 896.014 487.022 914.553 486.037 924.839C481.305 940.192 493.922 947.041 500.822 948.546C506.501 963 530.738 959.459 538.501 948.546C551.832 967.5 575.833 959.459 581.501 948.546Z" fill="white"/>
</svg>
