<svg width="1080" height="1080" viewBox="0 0 1080 1080" fill="none" xmlns="http://www.w3.org/2000/svg">
<path d="M785.9 275.626C725.097 247.898 669.212 239.882 661.077 257.721L611.495 366.449C635.241 404.755 712.524 478.465 831.681 466.859L881.263 358.13C889.398 340.292 846.702 303.353 785.9 275.626Z" fill="#FF8A01" stroke="black" stroke-width="8"/>
<path d="M881.497 358.237C873.362 376.076 817.477 368.06 756.674 340.332C695.871 312.605 653.176 275.666 661.311 257.827C669.445 239.989 725.33 248.005 786.133 275.732C846.936 303.46 889.632 340.398 881.497 358.237Z" fill="black"/>
<path d="M881.497 358.237C873.362 376.076 817.477 368.06 756.674 340.332C695.871 312.605 653.176 275.666 661.311 257.827M881.497 358.237C889.632 340.398 846.936 303.46 786.133 275.732C725.33 248.005 669.445 239.989 661.311 257.827M881.497 358.237L831.914 466.965M661.311 257.827L611.728 366.556M256.592 577.741L474.708 564.611C504.256 562.833 530.407 544.883 542.69 517.949L611.728 366.556M256.592 577.741C230.213 582.564 175.625 607.311 168.301 667.718C159.146 743.226 231.83 760.984 243.946 768.158M256.592 577.741C289.999 612.941 334.238 700.305 243.946 768.158M243.946 768.158C253.638 773.896 471.392 785.967 604.133 791.729M604.133 791.729C736.874 797.492 735.861 677.598 735.861 677.598M604.133 791.729C618.96 685.946 698.13 671.565 735.861 677.598M735.861 677.598L831.914 466.965M611.728 366.556C635.475 404.862 712.758 478.572 831.914 466.965" stroke="black" stroke-width="8"/>
<path d="M168.509 667.263C175.832 606.857 230.421 582.109 256.8 577.286C290.206 612.486 334.446 699.85 244.153 767.703C232.038 760.529 159.354 742.771 168.509 667.263Z" fill="#FF8A01"/>
<path d="M604.34 791.275C737.081 797.037 736.069 677.143 736.069 677.143C698.338 671.111 619.168 685.492 604.34 791.275Z" fill="#FF8A01"/>
<path d="M168.509 667.263C175.832 606.857 230.421 582.109 256.8 577.286C290.206 612.486 334.446 699.85 244.153 767.703C232.038 760.529 159.354 742.771 168.509 667.263Z" stroke="black" stroke-width="8"/>
<path d="M604.34 791.275C737.081 797.037 736.069 677.143 736.069 677.143C698.338 671.111 619.168 685.492 604.34 791.275Z" stroke="black" stroke-width="8"/>
<path d="M256.592 577.74L474.708 564.611C504.256 562.832 530.407 544.882 542.689 517.949L611.728 366.555C635.475 404.861 712.757 478.571 831.914 466.965L735.861 677.597C698.13 671.565 618.96 685.946 604.133 791.729C471.392 785.967 253.638 773.896 243.946 768.157C334.238 700.305 289.999 612.941 256.592 577.74Z" fill="#FF8A01" stroke="black" stroke-width="8"/>
<mask id="mask0_319_1083" style="mask-type:alpha" maskUnits="userSpaceOnUse" x="251" y="372" width="576" height="417">
<path d="M603.599 788.123C618.083 684.789 695.42 670.741 732.277 676.634L789.118 551.99L826.106 470.878C709.709 482.216 634.215 410.212 611.018 372.793L598.793 399.602L544.106 519.524C531.789 546.533 505.529 564.502 475.892 566.2L348.512 573.497L306.019 575.931L265.678 578.242C264.828 578.29 264.4 579.291 264.975 579.918C297.421 615.282 338.654 699.791 251.751 765.097C256.52 767.92 312.854 772.313 384.167 776.698C454.434 781.018 539.244 785.329 603.599 788.123Z" fill="black"/>
</mask>

</svg>
