<svg width="70%"  viewBox="0 0 65 64" preserveAspectRatio="xMidYMid meet" fill="none" xmlns="http://www.w3.org/2000/svg">
<path d="M25.8307 4.18066L24.9302 4.61562L25.8307 4.18066C24.8306 2.11028 21.6996 3.08668 22.0536 5.35851L23.2875 13.2771L17.7851 7.37559C16.2159 5.69262 13.5127 7.55579 14.5271 9.62117L18.0507 16.7954L11.0622 12.7762C9.06558 11.6279 7.02957 14.209 8.61123 15.8833L14.0929 21.6862L6.25334 19.8906C4.00631 19.3759 2.81526 22.4439 4.82096 23.5802L11.7704 27.5173L3.77359 28.0838C1.4732 28.2468 1.22968 31.5308 3.48096 32.0312L11.2951 33.7681L3.83227 36.6362C1.67993 37.4634 2.40491 40.6749 4.70391 40.4971L12.7103 39.8781L6.42534 44.8003C4.61117 46.2211 6.24242 49.0776 8.38802 48.2371L15.8866 45.2996L11.3316 51.8589C10.0185 53.7498 12.4146 55.9974 14.2177 54.5662L20.5364 49.5509L18.1279 57.1823C17.4357 59.3757 20.3858 60.812 21.6854 58.9142L26.2428 52.2589L26.2163 60.2857C26.2087 62.5844 29.45 63.0783 30.1275 60.8817L32.5001 53.1882L34.8727 60.8817C35.5501 63.0783 38.7914 62.5844 38.7838 60.2857L38.7574 52.2589L43.3147 58.9142C44.6142 60.8119 47.5644 59.3757 46.8722 57.1823L44.4637 49.5509L50.7824 54.5662C52.5856 55.9975 54.9817 53.7499 53.6686 51.8589L49.1136 45.2996L56.612 48.2371C58.7576 49.0776 60.3889 46.2211 58.5747 44.8003L52.2898 39.8781L60.2961 40.4971C62.5951 40.6749 63.3201 37.4634 61.1678 36.6362L53.7049 33.7681L61.5191 32.0312C63.7703 31.5308 63.5269 28.2468 61.2264 28.0838L53.2298 27.5173L60.1792 23.5802C62.1849 22.4439 60.9939 19.3759 58.7468 19.8906L50.9073 21.6862L56.3889 15.8833C57.9706 14.2089 55.9346 11.6278 53.9379 12.7762L46.9494 16.7954L50.473 9.62117C51.4874 7.55581 48.7842 5.69259 47.215 7.37559L41.7126 13.2771L42.9465 5.35851C43.3005 3.08668 40.1695 2.11029 39.1695 4.18066L35.6636 11.4385L34.4782 3.4871C34.1393 1.21364 30.8609 1.21364 30.5219 3.4871L29.3365 11.4385L25.8307 4.18066Z" fill="#FDED5E" stroke="black" stroke-width="2"/>
</svg>
